<svg width="53" height="52" viewBox="0 0 53 52" fill="none" xmlns="http://www.w3.org/2000/svg">
<path d="M22.5071 12.037C22.6174 12.2616 22.6903 12.5021 22.7229 12.7494L23.3262 21.7192L23.6257 26.2277C23.6288 26.6913 23.7015 27.152 23.8416 27.5948C24.2032 28.4539 25.0733 28.9999 26.0199 28.9618L40.444 28.0184C41.0686 28.0081 41.6718 28.2417 42.1208 28.6678C42.495 29.0229 42.7366 29.4874 42.8127 29.987L42.8382 30.2904C42.2413 38.5556 36.171 45.4494 27.9229 47.229C19.6748 49.0086 11.2168 45.2493 7.14098 37.9923C5.96595 35.884 5.23202 33.5666 4.98227 31.1761C4.87794 30.4685 4.832 29.7538 4.8449 29.0389C4.83201 20.1776 11.1423 12.5168 19.9755 10.6699C21.0386 10.5044 22.0808 11.0672 22.5071 12.037Z" fill="#97A5EB"/>
<path opacity="0.4" d="M28.3944 4.33512C38.2741 4.58647 46.5777 11.6909 48.176 21.26L48.1607 21.3306L48.1171 21.4333L48.1232 21.7151C48.1006 22.0886 47.9564 22.4478 47.7079 22.7381C47.4491 23.0404 47.0955 23.2462 46.7061 23.3261L46.4687 23.3587L29.827 24.437C29.2734 24.4916 28.7222 24.3131 28.3106 23.9459C27.9675 23.6399 27.7482 23.2269 27.6863 22.7818L26.5693 6.16431C26.5498 6.10812 26.5498 6.04721 26.5693 5.99102C26.5845 5.53297 26.7862 5.1 27.1291 4.78884C27.4721 4.47769 27.9277 4.31428 28.3944 4.33512Z" fill="#FFCC91"/>
</svg>
